<svg width="19" height="19" viewBox="0 0 19 19" fill="none" xmlns="http://www.w3.org/2000/svg">
<path d="M9.43154 1.87153C8.05923 1.87153 6.79296 2.20837 5.63273 2.88206C4.4725 3.55574 3.55554 4.47269 2.88186 5.63292C2.20818 6.79315 1.87134 8.05942 1.87134 9.43174C1.87134 10.8041 2.20818 12.0641 2.88186 13.2118C3.55554 14.3596 4.4725 15.2766 5.63273 15.9627C6.79296 16.6489 8.05923 16.9919 9.43154 16.9919C10.8039 16.9919 12.0639 16.6489 13.2116 15.9627C14.3594 15.2766 15.2764 14.3596 15.9625 13.2118C16.6487 12.0641 16.9917 10.8041 16.9917 9.43174C16.9917 8.05942 16.6487 6.79315 15.9625 5.63292C15.2764 4.47269 14.3594 3.55574 13.2116 2.88206C12.0639 2.20837 10.8039 1.87153 9.43154 1.87153ZM0 9.43174C0 7.71011 0.42417 6.13195 1.27251 4.69725C2.12085 3.26256 3.26237 2.12104 4.69706 1.27271C6.13175 0.424364 7.70367 0.00019455 9.41283 0.00019455C11.122 0.00019455 12.7001 0.424364 14.1473 1.27271C15.5945 2.12104 16.7422 3.26256 17.5906 4.69725C18.4389 6.13195 18.8631 7.70387 18.8631 9.41302C18.8631 11.1222 18.4389 12.7003 17.5906 14.1475C16.7422 15.5947 15.5945 16.7424 14.1473 17.5908C12.7001 18.4391 11.122 18.8633 9.41283 18.8633C7.70367 18.8633 6.13175 18.4391 4.69706 17.5908C3.26237 16.7424 2.12085 15.5947 1.27251 14.1475C0.42417 12.7003 0 11.1284 0 9.43174ZM6.51226 4.71597H10.966C11.8393 4.71597 12.5879 5.02786 13.2116 5.65164C13.8354 6.27541 14.1473 7.02395 14.1473 7.89724V8.34636C14.1473 9.21965 13.8354 9.96819 13.2116 10.592C12.5879 11.2157 11.8393 11.5276 10.966 11.5276H8.38359V14.5592H6.51226V4.71597ZM8.38359 9.6563H10.966C11.3154 9.6563 11.621 9.5253 11.883 9.26332C12.145 9.00133 12.276 8.69568 12.276 8.34636V7.89724C12.276 7.54792 12.145 7.24227 11.883 6.98029C11.621 6.7183 11.3154 6.5873 10.966 6.5873H8.38359V9.6563Z" fill="#FA9600"/>
</svg>
